<?xml version="1.0" encoding="UTF-8"?>
<svg version="1.1" xmlns="http://www.w3.org/2000/svg" width="773" height="323">
<path d="M0 0 C-1.31391192 3.58628133 -2.93522004 6.52532708 -5.0625 9.6875 C-8.19209513 14.75120016 -8.97491893 19.10594897 -9 25 C-9.66 25 -10.32 25 -11 25 C-11.33 23.35 -11.66 21.7 -12 20 C-12.68707031 21.10859375 -13.37414062 22.2171875 -14.08203125 23.359375 C-14.99209119 24.82297656 -15.90225278 26.28651491 -16.8125 27.75 C-17.26431641 28.47960937 -17.71613281 29.20921875 -18.18164062 29.9609375 C-19.97881519 32.84691126 -21.75626064 35.67589539 -23.80078125 38.39453125 C-25.13336791 39.93561199 -25.13336791 39.93561199 -25.375 41.9375 C-26 44 -26 44 -28.24609375 46.16796875 C-31.33217587 49.3415993 -33.42971717 52.59701657 -35.6875 56.375 C-36.55529924 57.79679092 -37.42514765 59.21733283 -38.296875 60.63671875 C-38.73966797 61.35778809 -39.18246094 62.07885742 -39.63867188 62.82177734 C-42.22413699 66.958707 -44.95730427 70.99682187 -47.68823242 75.03857422 C-51.82997664 80.98124326 -51.82997664 80.98124326 -54.875 87.5 C-56 90 -56 90 -58.23046875 92.140625 C-61.54469703 95.56236703 -63.92000605 99.22628266 -66.4375 103.25 C-67.8146614 105.422811 -69.19333135 107.59306674 -70.59790039 109.74829102 C-72.04723356 112.00666763 -72.04723356 112.00666763 -73.29077148 114.51538086 C-76.61648197 120.55380899 -76.61648197 120.55380899 -80.48754883 121.80224609 C-83.42550356 122.11161214 -86.23504568 122.14553174 -89.1875 122.0625 C-90.18458984 122.06958984 -91.18167969 122.07667969 -92.20898438 122.08398438 C-94.80863455 122.09625514 -97.40118488 122.05854828 -100 122 C-100.99 122 -101.98 122 -103 122 C-105.00309329 121.68578929 -107.00371336 121.3548954 -109 121 C-107.92692821 117.95962992 -106.80758635 115.73967565 -104.875 113.125 C-102.63387368 109.38978947 -102.76619953 107.28634201 -103 103 C-102.71479595 101.32442621 -102.40044304 99.65182755 -102 98 C-100 100 -100 100 -99.875 102.625 C-99.91625 103.40875 -99.9575 104.1925 -100 105 C-95.04377899 98.46555022 -95.04377899 98.46555022 -91.375 91.1875 C-89.78734074 87.50701718 -87.82871299 85.82871299 -85 83 C-83.93781322 81.42312358 -82.91362277 79.82042499 -81.9140625 78.203125 C-79.14944349 73.79393441 -76.31874361 69.44229517 -73.4140625 65.125 C-73.02283203 64.54220276 -72.63160156 63.95940552 -72.22851562 63.35894775 C-70.61528929 60.9568478 -69.00030421 58.55595712 -67.38134766 56.15771484 C-66.18083117 54.37803091 -64.98464249 52.59550259 -63.7890625 50.8125 C-63.08475098 49.76707031 -62.38043945 48.72164062 -61.65478516 47.64453125 C-59.88484576 45.04646495 -59.88484576 45.04646495 -59 42 C-58.34 42 -57.68 42 -57 42 C-56.896875 41.236875 -56.79375 40.47375 -56.6875 39.6875 C-55.92085185 36.69060268 -55.16301265 36.07953011 -53 34 C-52.18854835 32.90360635 -51.40796693 31.78385379 -50.65576172 30.64599609 C-50.21875946 29.98876556 -49.7817572 29.33153503 -49.33151245 28.65438843 C-48.6376091 27.59956772 -48.6376091 27.59956772 -47.9296875 26.5234375 C-47.44799103 25.79758453 -46.96629456 25.07173157 -46.47000122 24.32388306 C-44.93503833 22.00975245 -43.40480778 19.69254104 -41.875 17.375 C-40.33724933 15.05086139 -38.79851865 12.72738005 -37.25857544 10.4046936 C-36.30112171 8.96000182 -35.3450906 7.51436606 -34.39059448 6.06771851 C-31.11066202 1.11066202 -31.11066202 1.11066202 -30 0 C-26.87034815 -0.3865664 -23.71136805 -0.47506725 -20.5625 -0.625 C-19.65338867 -0.67003662 -18.74427734 -0.71507324 -17.80761719 -0.76147461 C-11.75716491 -1.02215784 -6.00255659 -0.90038349 0 0 Z " fill="#012560" transform="translate(172,120)"/>
<path d="M0 0 C0.69169785 -0.01910431 1.38339569 -0.03820862 2.09605408 -0.05789185 C9.26889415 -0.1952202 16.4204838 0.24075354 23.56640625 0.828125 C22.67864013 5.07519351 20.52128431 8.21262534 18.12890625 11.765625 C14.95157862 16.43842388 14.95157862 16.43842388 12.53125 21.51953125 C11.35500751 24.33394141 9.73147754 25.68235025 7.56640625 27.828125 C5.77025389 30.34229094 4.14490276 32.96085811 2.50390625 35.578125 C-2.94154448 44.13766079 -8.63978492 52.50162605 -14.43359375 60.828125 C-11.38883941 66.64377149 -7.99049596 72.16898739 -4.37109375 77.640625 C-3.94779785 78.28652588 -3.52450195 78.93242676 -3.08837891 79.59790039 C-0.78430029 83.0468321 1.58074132 85.92829028 4.56640625 88.828125 C7.45204477 92.34000847 9.12384899 95.25858796 9.56640625 99.828125 C7.71189918 105.08277799 4.22270997 109.58290505 0.91455078 114.01025391 C-0.97053579 116.5521508 -2.69840048 119.18226292 -4.43359375 121.828125 C-7.1450815 121.47968274 -8.1976465 121.1095583 -9.98242188 118.98071289 C-10.47162109 118.17883545 -10.96082031 117.37695801 -11.46484375 116.55078125 C-12.30039795 115.2054834 -12.30039795 115.2054834 -13.15283203 113.83300781 C-13.7404834 112.86202148 -14.32813477 111.89103516 -14.93359375 110.890625 C-16.18977129 108.86487066 -17.44760813 106.8401444 -18.70703125 104.81640625 C-19.33448242 103.80271973 -19.96193359 102.7890332 -20.60839844 101.74462891 C-23.17999799 97.63543571 -25.85553605 93.60159527 -28.55859375 89.578125 C-29.03506348 88.86188965 -29.5115332 88.1456543 -30.00244141 87.40771484 C-32.58914991 83.52896159 -35.2260711 79.69329998 -37.91796875 75.88671875 C-38.48499512 75.07170898 -39.05202148 74.25669922 -39.63623047 73.41699219 C-40.72684178 71.85096987 -41.83205763 70.29498818 -42.95361328 68.75097656 C-46.54542379 63.55446663 -46.54542379 63.55446663 -46.0390625 60.265625 C-45.50925781 59.46125 -44.97945312 58.656875 -44.43359375 57.828125 C-43.77230469 56.74144531 -43.11101563 55.65476563 -42.4296875 54.53515625 C-41.58130638 53.23404472 -40.72807211 51.9360901 -39.87109375 50.640625 C-39.16557373 49.56204224 -39.16557373 49.56204224 -38.44580078 48.46166992 C-37.38128556 46.83518655 -36.31474717 45.21002618 -35.24658203 43.5859375 C-32.87345641 39.9760766 -30.50602189 36.36249087 -28.14845276 32.7424469 C-26.29448941 29.89815849 -24.42598873 27.0658899 -22.52368164 24.25366211 C-17.38965228 16.60821566 -17.38965228 16.60821566 -13.83203125 8.16430664 C-10.58266436 1.93764532 -6.80479458 0.14069825 0 0 Z " fill="#0255D7" transform="translate(59.43359375,119.171875)"/>
<path d="M0 0 C5.37691928 4.72170474 8.85850838 10.63490853 12.6875 16.625 C14.18847379 18.95502337 15.6937151 21.28227668 17.19921875 23.609375 C17.78024857 24.50926651 17.78024857 24.50926651 18.37301636 25.42733765 C21.23023334 29.84227785 24.14199444 34.21797536 27.08203125 38.578125 C27.495634 39.19259491 27.90923676 39.80706482 28.33537292 40.44015503 C29.95365281 42.84337276 31.57233806 45.2462189 33.20175171 47.64190674 C34.3270122 49.2969377 35.44491978 50.95696068 36.5625 52.6171875 C37.20316406 53.56190918 37.84382813 54.50663086 38.50390625 55.47998047 C39.86991005 57.78087656 40.76916429 59.34625201 41 62 C39.52759687 64.58777063 38.04067518 66.90735689 36.3125 69.3125 C35.41049201 70.59867254 34.51073478 71.88642662 33.61328125 73.17578125 C33.1745166 73.80436035 32.73575195 74.43293945 32.28369141 75.08056641 C30.35384172 77.96616516 28.67812466 80.96208346 27 84 C26.34 84 25.68 84 25 84 C24.73832031 84.89460938 24.47664063 85.78921875 24.20703125 86.7109375 C22.64365758 90.97100425 20.26658622 93.88442793 17.48828125 97.4375 C15.43906778 100.19501246 13.90128589 103.05902706 12.35546875 106.125 C5.15891863 119.76651183 5.15891863 119.76651183 -0.59472656 122.01318359 C-7.08471535 123.232726 -13.48287581 122.78092703 -20 122 C-20.88236328 121.90638184 -21.76472656 121.81276367 -22.67382812 121.71630859 C-24.78399967 121.49069017 -26.8922637 121.2473364 -29 121 C-27.67204345 117.41196356 -26.07891474 114.33332515 -24 111.125 C-23.37480469 110.15949219 -22.74960938 109.19398438 -22.10546875 108.19921875 C-18.09993727 102.1128917 -14.05523801 96.05328756 -10 90 C-0.3493941 75.59821125 -0.3493941 75.59821125 9 61 C4.37332104 53.56263783 4.37332104 53.56263783 -0.625 46.375 C-2.95584383 43.18622343 -4.80117927 39.81632251 -6.66015625 36.3359375 C-8.51913163 33.09492504 -10.71716001 30.1249596 -12.9609375 27.140625 C-14 25 -14 25 -13.96875 22.73828125 C-12.56755467 18.77764445 -10.39984087 15.45287024 -8.125 11.9375 C-7.45404297 10.87692383 -7.45404297 10.87692383 -6.76953125 9.79492188 C-4.62947785 6.43333357 -2.46189618 3.13851003 0 0 Z " fill="#0254D7" transform="translate(181,120)"/>
<path d="M0 0 C4.9836095 5.68246049 6.16128438 11.42870224 6.421875 18.81640625 C6.44977112 19.58750229 6.47766724 20.35859833 6.50640869 21.15306091 C6.56279218 22.78790373 6.61641127 24.42284387 6.66748047 26.05786133 C6.74891692 28.52962633 6.85274921 30.99981188 6.95703125 33.47070312 C7.3119671 43.4202446 7.55461554 52.54648495 1.3125 60.875 C-4.1451509 66.54667643 -10.09373828 68.52717895 -17.8515625 68.97265625 C-33.57064176 69.10917431 -33.57064176 69.10917431 -38.15869141 67.0144043 C-41.04413203 63.85771236 -40.67901293 60.29790778 -40.74609375 56.22265625 C-40.77481064 55.34013687 -40.80352753 54.45761749 -40.83311462 53.5483551 C-40.915522 50.6987601 -40.96362039 47.8505378 -41 45 C-41.01218567 44.06967957 -41.02437134 43.13935913 -41.03692627 42.18084717 C-41.10730694 35.59932288 -41.09241429 29.01920775 -41.0625 22.4375 C-41.05746407 20.48242305 -41.05290494 18.52734481 -41.04882812 16.57226562 C-41.04076013 13.03831304 -41.03019683 9.50439174 -41.01586914 5.97045898 C-41.00658267 3.64698519 -41 1.32349235 -41 -1 C-31.50584942 -8.5808807 -9.85361127 -6.2494976 0 0 Z M-28 8 C-28 23.84 -28 39.68 -28 56 C-22.78192706 56.86967882 -19.09535876 57.13897932 -14 56.3125 C-13.13375 56.18488281 -12.2675 56.05726563 -11.375 55.92578125 C-8.04536879 54.62788224 -7.50202498 53.22791966 -6 50 C-5.68907173 47.12355199 -5.5320042 44.46892173 -5.53125 41.59375 C-5.52363647 40.79142944 -5.51602295 39.98910889 -5.50817871 39.16247559 C-5.49740586 37.47146711 -5.49451315 35.78039225 -5.49902344 34.08935547 C-5.49999711 31.50765938 -5.45832125 28.92892463 -5.4140625 26.34765625 C-5.4088559 24.700527 -5.4061673 23.05338747 -5.40625 21.40625 C-5.38985474 20.63841187 -5.37345947 19.87057373 -5.35656738 19.07946777 C-5.43472147 12.99664372 -6.23125486 12.76874514 -11 8 C-16.61 8 -22.22 8 -28 8 Z " fill="#010101" transform="translate(412,117)"/>
<path d="M0 0 C5.38906708 4.08262658 7.21602054 10.32653786 8.3203125 16.7578125 C8.68183982 21.21599276 8.86958762 25.67895365 9.04272461 30.14770508 C9.10228108 31.58400066 9.17113423 33.01994405 9.24975586 34.45532227 C9.87586771 45.93315701 9.22532391 57.65507209 1.3203125 66.7578125 C-1.1171875 68.0078125 -1.1171875 68.0078125 -3.6796875 68.7578125 C-4.78570312 69.26441406 -4.78570312 69.26441406 -5.9140625 69.78125 C-12.35412442 72.05528316 -20.90180678 72.02460884 -27.1796875 69.1953125 C-33.28703411 65.48634449 -36.80898485 60.59297896 -38.6796875 53.7578125 C-38.96965274 50.73805378 -38.98384345 47.7352433 -38.98046875 44.703125 C-38.98475388 43.84274628 -38.989039 42.98236755 -38.99345398 42.09591675 C-38.99917683 40.28221513 -38.99971267 38.46849058 -38.99536133 36.65478516 C-38.9922053 33.89835927 -39.0156721 31.1430119 -39.04101562 28.38671875 C-39.04328942 26.61718884 -39.04399174 24.84765607 -39.04296875 23.078125 C-39.0521785 22.26328644 -39.06138824 21.44844788 -39.07087708 20.60891724 C-39.0128892 13.33938457 -37.13032816 6.65974902 -32.6796875 0.7578125 C-22.8298695 -5.23101413 -10.10809163 -5.15718961 0 0 Z M-25.6796875 12.7578125 C-26.93284567 16.517287 -26.8614139 20.05062528 -26.8828125 23.96875 C-26.88851257 24.77390045 -26.89421265 25.5790509 -26.90008545 26.40859985 C-26.90952686 28.11157928 -26.91606602 29.8145769 -26.91992188 31.51757812 C-26.92962551 34.11621123 -26.96065534 36.71405253 -26.9921875 39.3125 C-26.99871817 40.96874531 -27.00396839 42.62499627 -27.0078125 44.28125 C-27.0201593 45.05536224 -27.0325061 45.82947449 -27.04522705 46.62704468 C-27.02648093 51.19134687 -26.51518366 54.13295691 -23.6796875 57.7578125 C-19.71854376 60.39857499 -15.64113397 59.82317353 -11.08203125 59.53515625 C-7.58420043 58.40333782 -6.62116571 56.87152771 -4.6796875 53.7578125 C-4.10058628 50.72195955 -4.11859376 47.74369391 -4.1484375 44.66015625 C-4.14269714 43.3532357 -4.14269714 43.3532357 -4.13684082 42.01991272 C-4.13412597 40.18342936 -4.14145726 38.34690706 -4.15820312 36.51049805 C-4.17964574 33.70078422 -4.15837475 30.89361968 -4.1328125 28.08398438 C-4.13545535 26.29686936 -4.14057944 24.50975594 -4.1484375 22.72265625 C-4.14034058 21.88403549 -4.13224365 21.04541473 -4.12390137 20.18138123 C-4.1885169 15.35977801 -4.1885169 15.35977801 -6.58789062 11.26000977 C-12.57016509 6.96391561 -20.6646451 7.09566786 -25.6796875 12.7578125 Z " fill="#010101" transform="translate(344.6796875,115.2421875)"/>
<path d="M0 0 C0.72740387 -0.00622879 1.45480774 -0.01245758 2.20425415 -0.01887512 C2.97006805 -0.00966537 3.73588196 -0.00045563 4.52490234 0.0090332 C5.72981827 0.00828545 5.72981827 0.00828545 6.95907593 0.00752258 C8.64836109 0.0098527 10.33765041 0.01951821 12.02685547 0.03613281 C14.60985337 0.05980541 17.19182287 0.05667588 19.77490234 0.05004883 C21.42074182 0.05562377 23.06657696 0.0627325 24.71240234 0.0715332 C25.86719589 0.07016609 25.86719589 0.07016609 27.0453186 0.06877136 C30.83198785 0.11882628 33.77383478 0.24701838 36.98583984 2.37231445 C36.98583984 4.68231445 36.98583984 6.99231445 36.98583984 9.37231445 C36.32583984 9.37231445 35.66583984 9.37231445 34.98583984 9.37231445 C34.98583984 10.03231445 34.98583984 10.69231445 34.98583984 11.37231445 C32.06386295 12.8333029 29.48690509 12.48366347 26.22802734 12.4699707 C25.23345016 12.46784828 25.23345016 12.46784828 24.21878052 12.46568298 C22.09942122 12.46008199 19.98016726 12.44752946 17.86083984 12.43481445 C16.42464345 12.42979957 14.98844541 12.42523665 13.55224609 12.42114258 C10.03003736 12.41096278 6.50805663 12.39138783 2.98583984 12.37231445 C2.98583984 18.31231445 2.98583984 24.25231445 2.98583984 30.37231445 C4.31099609 30.33750977 5.63615234 30.30270508 7.00146484 30.2668457 C8.74624382 30.23870411 10.49103653 30.21140434 12.23583984 30.18481445 C13.10853516 30.15967773 13.98123047 30.13454102 14.88037109 30.10864258 C21.32777036 30.0348174 21.32777036 30.0348174 24.56787109 31.6965332 C25.98583984 33.37231445 25.98583984 33.37231445 26.42333984 36.37231445 C25.93759985 39.70310299 25.60127349 40.39961087 22.98583984 42.37231445 C20.80932617 42.71289062 20.80932617 42.71289062 18.31787109 42.6652832 C17.42519531 42.65561523 16.53251953 42.64594727 15.61279297 42.63598633 C14.21963867 42.59828125 14.21963867 42.59828125 12.79833984 42.55981445 C11.85796875 42.5462793 10.91759766 42.53274414 9.94873047 42.51879883 C7.62718946 42.48344541 5.30680331 42.43410119 2.98583984 42.37231445 C3.17146484 43.67168945 3.35708984 44.97106445 3.54833984 46.30981445 C4.10468022 51.17779271 3.67733412 55.5318545 2.98583984 60.37231445 C3.76709229 60.356604 4.54834473 60.34089355 5.35327148 60.32470703 C8.91821964 60.26206206 12.48305162 60.22322956 16.04833984 60.18481445 C17.27746094 60.15967773 18.50658203 60.13454102 19.77294922 60.10864258 C31.3630229 60.01492231 31.3630229 60.01492231 36.98583984 63.37231445 C38.04833984 65.30981445 38.04833984 65.30981445 37.98583984 67.37231445 C37.23583984 69.55981445 37.23583984 69.55981445 35.98583984 71.37231445 C32.14525383 72.65250979 28.52239275 72.51521166 24.52099609 72.50512695 C23.69127792 72.50608368 22.86155975 72.50704041 22.00669861 72.50802612 C20.25243046 72.5087064 18.49815979 72.50686275 16.74389648 72.50268555 C14.06211673 72.4973419 11.38050497 72.5026322 8.69873047 72.5090332 C6.99365197 72.50837226 5.28857359 72.50709077 3.58349609 72.50512695 C2.78234879 72.50715118 1.98120148 72.50917542 1.15577698 72.51126099 C-6.04566728 72.48102656 -6.04566728 72.48102656 -9.01416016 71.37231445 C-10.12392057 68.04303321 -10.1344691 65.57204088 -10.12768555 62.06494141 C-10.12761002 60.76381912 -10.12753448 59.46269684 -10.12745667 58.12214661 C-10.12235001 56.70162925 -10.11713401 55.28111228 -10.11181641 53.8605957 C-10.10995107 52.40756784 -10.10852771 50.95453934 -10.10752869 49.50151062 C-10.10371262 45.67925273 -10.09389009 41.8570329 -10.08282471 38.03479004 C-10.07259103 34.13363154 -10.06802687 30.23246688 -10.06298828 26.33129883 C-10.05226701 18.67828669 -10.03520151 11.02530591 -10.01416016 3.37231445 C-3.72926728 -0.00371459 -3.72926728 -0.00371459 0 0 Z " fill="#010101" transform="translate(446.01416015625,112.627685546875)"/>
<path d="M0 0 C5.01744847 4.30067011 6.02183495 8.94085142 7.32421875 15.29296875 C7.8876023 18.19611428 7.8876023 18.19611428 10 21 C10.706418 23.51965288 11.34641668 26.01631754 11.9375 28.5625 C13.27269648 34.13650527 14.71864865 39.62518547 16.484375 45.08203125 C17 47 17 47 17 50 C17.66 50 18.32 50 19 50 C19.1546875 51.4540625 19.1546875 51.4540625 19.3125 52.9375 C19.73388831 55.99256525 20.53113252 58.72063026 21.5625 61.625 C23.60855705 67.55151007 23.60855705 67.55151007 23 71 C21.875 72.8125 21.875 72.8125 20 74 C17 74.375 17 74.375 14 74 C11.54027648 72.00792762 10.39592988 70.07147068 9.3125 67.125 C9.06113281 66.46757812 8.80976562 65.81015625 8.55078125 65.1328125 C8 63 8 63 8 58 C1.07 58 -5.86 58 -13 58 C-13.433125 59.8975 -13.86625 61.795 -14.3125 63.75 C-15.24323497 67.82750557 -16.0448341 70.94997692 -19 74 C-23.08165827 74.51020728 -24.52957297 74.31361802 -28 72 C-28.48860295 66.86649628 -27.55826138 62.49621418 -26.1875 57.5625 C-25.85105469 56.32628906 -25.51460937 55.09007812 -25.16796875 53.81640625 C-24.20060081 50.6554749 -23.09497738 47.60782702 -21.91235352 44.52416992 C-19.94996692 39.09491784 -18.27578682 33.56425177 -16.55615234 28.05419922 C-15.87403385 25.87190902 -15.18523633 23.69179952 -14.49609375 21.51171875 C-14.05688414 20.10950258 -13.61806839 18.70716297 -13.1796875 17.3046875 C-12.78507324 16.04640137 -12.39045898 14.78811523 -11.98388672 13.49169922 C-11.09195606 10.32634135 -10.46513145 7.25217415 -10 4 C-9.34 4 -8.68 4 -8 4 C-7.67 3.01 -7.34 2.02 -7 1 C-4.32590305 -0.33704848 -2.97186266 -0.4837916 0 0 Z M-3 27 C-4.6230253 31.25078054 -6.20632123 35.51002832 -7.6875 39.8125 C-8.06455078 40.90498047 -8.06455078 40.90498047 -8.44921875 42.01953125 C-9.13396894 44.13911302 -9.13396894 44.13911302 -9 47 C-4.71 47 -0.42 47 4 47 C3.21463402 44.22723844 2.4220176 41.45691229 1.625 38.6875 C1.40328125 37.90181641 1.1815625 37.11613281 0.953125 36.30664062 C0.73398437 35.54931641 0.51484375 34.79199219 0.2890625 34.01171875 C-0.00943604 32.96697388 -0.00943604 32.96697388 -0.31396484 31.90112305 C-1.01712196 29.7150302 -1.01712196 29.7150302 -3 27 Z " fill="#010101" transform="translate(657,112)"/>
<path d="M0 0 C4.77535965 3.35239894 7.19345436 7.98345853 8.3203125 13.62890625 C8.66177591 20.11671113 8.66177591 20.11671113 6.3203125 23.62890625 C3.26823219 24.78374745 1.74457938 24.76703965 -1.3671875 23.75390625 C-4.38205814 20.98348458 -4.54450739 18.75367428 -5.02734375 14.78515625 C-5.91028202 11.8667016 -7.02845066 11.07837137 -9.6796875 9.62890625 C-12.16489489 9.23143893 -12.16489489 9.23143893 -14.7421875 9.37890625 C-15.59941406 9.394375 -16.45664062 9.40984375 -17.33984375 9.42578125 C-19.83340575 9.55070401 -19.83340575 9.55070401 -22.6796875 10.62890625 C-23.91837862 14.34497961 -23.97033053 17.89196535 -24.1015625 21.76953125 C-24.12945862 22.56993835 -24.15735474 23.37034546 -24.18609619 24.19500732 C-24.24246589 25.88952074 -24.29608659 27.58412751 -24.34716797 29.27880859 C-24.42895736 31.8559003 -24.53264181 34.43153819 -24.63671875 37.0078125 C-24.68886423 38.65750953 -24.73968761 40.30724898 -24.7890625 41.95703125 C-24.82328308 42.72082092 -24.85750366 43.4846106 -24.89276123 44.27154541 C-25.01439442 49.49256022 -24.03608716 52.96079992 -21.6796875 57.62890625 C-15.84493735 58.48220963 -11.23108099 59.11242439 -5.6796875 56.62890625 C-5.65390625 55.94183594 -5.628125 55.25476563 -5.6015625 54.546875 C-5.51648438 53.19529297 -5.51648438 53.19529297 -5.4296875 51.81640625 C-5.38328125 50.92308594 -5.336875 50.02976563 -5.2890625 49.109375 C-4.6796875 46.62890625 -4.6796875 46.62890625 -2.8203125 44.828125 C0.09935109 43.19247405 2.02146912 43.21655083 5.3203125 43.62890625 C7.5078125 45.15234375 7.5078125 45.15234375 9.3203125 46.62890625 C8.20820112 54.85267721 6.77482921 60.69346208 0.3828125 66.37890625 C-5.4348686 70.65312093 -9.9937349 70.8975209 -16.9921875 70.75390625 C-18.24612305 70.74037109 -18.24612305 70.74037109 -19.52539062 70.7265625 C-21.57694719 70.70311614 -23.62835527 70.66724891 -25.6796875 70.62890625 C-25.6796875 69.96890625 -25.6796875 69.30890625 -25.6796875 68.62890625 C-26.3809375 68.46390625 -27.0821875 68.29890625 -27.8046875 68.12890625 C-31.99375202 65.94330737 -34.50779823 62.80071702 -36.6796875 58.62890625 C-38.46719262 52.60544677 -38.94761785 46.89748201 -38.76171875 40.6484375 C-38.74380783 39.83195236 -38.72589691 39.01546722 -38.70744324 38.17424011 C-38.66658025 36.4640808 -38.62007627 34.75404755 -38.56811523 33.04418945 C-38.49208079 30.43774812 -38.44328057 27.83172096 -38.39648438 25.22460938 C-38.35320078 23.55334218 -38.3083337 21.88211509 -38.26171875 20.2109375 C-38.24905472 19.43893509 -38.23639069 18.66693268 -38.2233429 17.87153625 C-38.05112087 13.07360173 -37.14445861 9.86192546 -34.6796875 5.62890625 C-34.3290625 4.76265625 -33.9784375 3.89640625 -33.6171875 3.00390625 C-25.78207958 -6.60041959 -9.91806311 -5.0746941 0 0 Z " fill="#010101" transform="translate(278.6796875,115.37109375)"/>
<path d="M0 0 C1.155 0.350625 2.31 0.70125 3.5 1.0625 C8.27155826 3.11957178 10.69191621 7.53099212 13 12 C14.91158571 17.89695227 14.99531858 24.56595871 12.4375 30.25 C9.34286177 35.63292707 5.07808219 39.62146997 -0.9375 41.375 C-1.948125 41.58125 -2.95875 41.7875 -4 42 C-4 42.66 -4 43.32 -4 44 C-4.66 44 -5.32 44 -6 44 C-6 43.34 -6 42.68 -6 42 C-10.62 42 -15.24 42 -20 42 C-19.82984375 43.12921875 -19.6596875 44.2584375 -19.484375 45.421875 C-18.90614335 50.0764347 -18.99290274 54.57550433 -19.25 59.25 C-19.27707031 60.03890625 -19.30414062 60.8278125 -19.33203125 61.640625 C-19.51212155 65.07976874 -19.70904206 67.45988843 -21.359375 70.5234375 C-23 72 -23 72 -26 72.375 C-29 72 -29 72 -32 70 C-33.09831814 66.70504559 -33.15368606 64.21073316 -33.19287109 60.74023438 C-33.20893402 59.44879517 -33.22499695 58.15735596 -33.24154663 56.82678223 C-33.25303021 55.41577817 -33.2636394 54.00476677 -33.2734375 52.59375 C-33.27876118 51.88312912 -33.28408485 51.17250824 -33.28956985 50.44035339 C-33.31626107 46.68274007 -33.33565323 42.92515959 -33.35009766 39.16748047 C-33.36346591 36.05552972 -33.39137517 32.94423024 -33.43212891 29.83251953 C-33.48134071 26.07480041 -33.50620323 22.31767425 -33.51332474 18.55964661 C-33.52005065 17.12744163 -33.53530774 15.69525058 -33.55921555 14.26322937 C-33.59072945 12.26230657 -33.5879124 10.2609317 -33.58349609 8.25976562 C-33.59158295 7.12075806 -33.5996698 5.98175049 -33.60800171 4.80822754 C-33 2 -33 2 -30.61927795 0.13777161 C-27.88042818 -1.05194005 -25.88151467 -1.44715989 -22.91015625 -1.58203125 C-21.48606445 -1.64874023 -21.48606445 -1.64874023 -20.03320312 -1.71679688 C-18.56270508 -1.76416992 -18.56270508 -1.76416992 -17.0625 -1.8125 C-16.08603516 -1.86341797 -15.10957031 -1.91433594 -14.10351562 -1.96679688 C-8.93032967 -2.17372431 -4.84538027 -2.06696284 0 0 Z M-20 11 C-20 17.6 -20 24.2 -20 31 C-15.38 31 -10.76 31 -6 31 C-6 30.34 -6 29.68 -6 29 C-5.01 29.33 -4.02 29.66 -3 30 C-0.12579877 27.28395285 -0.12579877 27.28395285 2 24 C2.0149921 21.88446939 2.0149921 21.88446939 1.75 19.5625 C1.64945313 18.38880859 1.64945313 18.38880859 1.546875 17.19140625 C0.88954904 14.55740721 0.16003117 13.62002338 -2 12 C-7.40769772 9.86858761 -14.36348812 10.94781008 -20 11 Z " fill="#010101" transform="translate(534,114)"/>
<path d="M0 0 C0.33 0.99 0.66 1.98 1 3 C1.99 3.33 2.98 3.66 4 4 C5.00390625 6.23828125 5.00390625 6.23828125 6 9 C6.94179691 10.74980093 7.92196561 12.47943834 8.9375 14.1875 C9.69353516 15.47720703 9.69353516 15.47720703 10.46484375 16.79296875 C11.97032238 19.24477437 11.97032238 19.24477437 15 21 C15.33 21.99 15.66 22.98 16 24 C17.81746173 21.06554262 19.62810012 18.12693401 21.4375 15.1875 C21.95376953 14.35412109 22.47003906 13.52074219 23.00195312 12.66210938 C23.74155273 11.45844727 23.74155273 11.45844727 24.49609375 10.23046875 C25.17949829 9.12288208 25.17949829 9.12288208 25.87670898 7.99291992 C27.13821646 5.90257845 27.13821646 5.90257845 28 3 C28.66 3 29.32 3 30 3 C30.33 2.01 30.66 1.02 31 0 C34.1875 -0.75 34.1875 -0.75 38 -1 C40.9375 0.9375 40.9375 0.9375 43 3 C41.46760127 7.19767619 39.38989858 10.96443571 37.12109375 14.796875 C36.74896255 15.43111389 36.37683136 16.06535278 35.99342346 16.71881104 C35.21087623 18.05097143 34.42666133 19.38215345 33.64086914 20.71240234 C32.43441694 22.75522038 31.23340515 24.80116107 30.03320312 26.84765625 C29.27114835 28.14341448 28.5087893 29.43899383 27.74609375 30.734375 C27.3856749 31.34786804 27.02525604 31.96136108 26.65391541 32.59344482 C24.11637902 36.88362098 24.11637902 36.88362098 23 38 C22.95112848 39.83268183 22.96370349 41.667026 23 43.5 C23.03047803 49.01042828 22.94048722 54.49633458 22.6875 60 C22.66494141 60.71736328 22.64238281 61.43472656 22.61914062 62.17382812 C22.39464969 66.51262562 21.86087196 69.64813171 19 73 C17.68 73 16.36 73 15 73 C15 73.66 15 74.32 15 75 C14.34 75 13.68 75 13 75 C8.76775305 69.4053726 8.88029773 65.75124653 9.51269531 58.89892578 C11.32044285 37.65053168 1.38821689 24.50546389 -10.25683594 7.75341797 C-12 5 -12 5 -12 3 C-7.99202044 -1.25088741 -5.56953279 -1.3104783 0 0 Z " fill="#010101" transform="translate(698,113)"/>
<path d="M0 0 C3.48984326 3.55788561 4.4979894 5.85169571 4.45410156 10.80004883 C4.45379944 11.94085403 4.45349731 13.08165924 4.45318604 14.2570343 C4.43254089 15.47803329 4.41189575 16.69903229 4.390625 17.95703125 C4.38496521 19.21513107 4.37930542 20.4732309 4.37347412 21.76945496 C4.35490044 25.10222785 4.31901116 28.43389216 4.2746582 31.76635742 C4.23362121 35.17161515 4.21544527 38.57698775 4.1953125 41.98242188 C4.1512313 48.65525293 4.08430697 55.3275625 4 62 C4.56920166 61.99476318 5.13840332 61.98952637 5.72485352 61.98413086 C8.33739083 61.96317113 10.94991037 61.95027996 13.5625 61.9375 C14.45775391 61.92912109 15.35300781 61.92074219 16.27539062 61.91210938 C21.28676315 61.8937527 26.08405663 61.97288437 31 63 C33 65 33 65 33.3125 68.5 C33.209375 69.655 33.10625 70.81 33 72 C29.37492505 74.41671663 27.53315914 74.29082361 23.21484375 74.37890625 C22.22950401 74.40439796 22.22950401 74.40439796 21.22425842 74.43040466 C19.12876956 74.48346388 17.03329938 74.52380018 14.9375 74.5625 C12.83823025 74.60644993 10.73911243 74.65316025 8.64002991 74.70530701 C6.73794328 74.75181333 4.83564316 74.78932672 2.93334961 74.82641602 C0.06601572 74.80299364 0.06601572 74.80299364 -2 76 C-2 75.34 -2 74.68 -2 74 C-2.78375 73.896875 -3.5675 73.79375 -4.375 73.6875 C-7 73 -7 73 -9 70 C-9.31577174 67.42029274 -9.51374822 64.94138152 -9.62109375 62.3515625 C-9.65883408 61.56689606 -9.6965744 60.78222961 -9.73545837 59.9737854 C-10.1993942 49.11341866 -10.10662952 38.24251984 -10.0625 27.375 C-10.05746944 25.19270937 -10.05290931 23.01041761 -10.04882812 20.828125 C-10.03795855 15.55205796 -10.02134655 10.27603454 -10 5 C-9.34 5 -8.68 5 -8 5 C-7.67 4.01 -7.34 3.02 -7 2 C-4.56723614 0.81480735 -2.71982714 0 0 0 Z " fill="#010101" transform="translate(576,111)"/>
<path d="M0 0 C0.40476562 0.50660156 0.80953125 1.01320312 1.2265625 1.53515625 C2.88500814 3.23371102 2.88500814 3.23371102 5.0859375 2.93359375 C6.21902344 2.68802734 6.21902344 2.68802734 7.375 2.4375 C11.03927288 1.87652011 11.66291328 1.79634344 15 3.8125 C18.01116937 7.1059665 18.12166861 8.85631236 18.09765625 13.2265625 C18.09443359 14.2578125 18.09121094 15.2890625 18.08789062 16.3515625 C18.07951172 17.43179688 18.07113281 18.51203125 18.0625 19.625 C18.05798828 20.71296875 18.05347656 21.8009375 18.04882812 22.921875 C18.03701776 25.61463789 18.02054778 28.30729188 18 31 C16.02 31.99 16.02 31.99 14 33 C13.67 32.67 13.34 32.34 13 32 C11.54843703 31.76578366 10.08775657 31.58661596 8.625 31.4375 C7.83351563 31.35371094 7.04203125 31.26992187 6.2265625 31.18359375 C3.87404428 30.95891137 3.87404428 30.95891137 1 31 C0.67 31 0.34 31 0 31 C-1.1171145 25.61834524 -1.14899997 20.40549251 -1.125 14.9375 C-1.12886719 14.05255859 -1.13273438 13.16761719 -1.13671875 12.25585938 C-1.13040231 8.04595477 -1.0746695 4.10250819 0 0 Z M5 9 C4.92686433 11.53049402 4.90752473 14.03304837 4.9375 16.5625 C4.94201172 17.27341797 4.94652344 17.98433594 4.95117188 18.71679688 C4.96299136 20.47790013 4.98092737 22.23896036 5 24 C5.66 23.67 6.32 23.34 7 23 C7 22.34 7 21.68 7 21 C8.65 21.33 10.3 21.66 12 22 C12.02685938 19.85423363 12.04633088 17.70837355 12.0625 15.5625 C12.07410156 14.36753906 12.08570313 13.17257813 12.09765625 11.94140625 C12.33901792 9.11126659 12.33901792 9.11126659 11 8 C7.71105107 7.59371033 7.71105107 7.59371033 5 9 Z " fill="#030303" transform="translate(620,213)"/>
<path d="M0 0 C0.85464844 0.07605469 1.70929687 0.15210938 2.58984375 0.23046875 C5.0625 0.8125 5.0625 0.8125 7.19140625 2.42578125 C7.80886719 2.88339844 8.42632813 3.34101563 9.0625 3.8125 C10.0525 3.4825 11.0425 3.1525 12.0625 2.8125 C12.0625 12.0525 12.0625 21.2925 12.0625 30.8125 C11.4025 30.8125 10.7425 30.8125 10.0625 30.8125 C9.7325 30.1525 9.4025 29.4925 9.0625 28.8125 C7.7425 28.8125 6.4225 28.8125 5.0625 28.8125 C3.359375 26.625 3.359375 26.625 1.8125 23.8125 C1.29171875 22.884375 0.7709375 21.95625 0.234375 21 C-0.15234375 20.278125 -0.5390625 19.55625 -0.9375 18.8125 C-2.43493119 20.30993119 -2.26952693 21.80074239 -2.5 23.875 C-2.644375 25.174375 -2.78875 26.47375 -2.9375 27.8125 C-4.875 28.375 -4.875 28.375 -6.9375 28.8125 C-9.59464542 26.15535458 -8.17241532 18.45195491 -8.1875 14.875 C-8.208125 13.65619141 -8.22875 12.43738281 -8.25 11.18164062 C-8.25515625 10.01955078 -8.2603125 8.85746094 -8.265625 7.66015625 C-8.2749707 6.58773682 -8.28431641 5.51531738 -8.29394531 4.41040039 C-8.17631836 3.55309326 -8.05869141 2.69578613 -7.9375 1.8125 C-4.58221483 -0.42435678 -3.84245882 -0.39869122 0 0 Z M-2.9375 5.8125 C-2.9375 7.7925 -2.9375 9.7725 -2.9375 11.8125 C-0.6275 11.8125 1.6825 11.8125 4.0625 11.8125 C4.7439823 9.92070797 4.7439823 9.92070797 5.0625 7.8125 C3.16494856 5.46276182 3.16494856 5.46276182 -0.0625 5.6875 C-1.01125 5.72875 -1.96 5.77 -2.9375 5.8125 Z M9.0625 12.8125 C7.7425 14.4625 6.4225 16.1125 5.0625 17.8125 C6.36656884 19.83170337 7.70073419 21.83174973 9.0625 23.8125 C9.3925 23.8125 9.7225 23.8125 10.0625 23.8125 C10.26875 22.554375 10.475 21.29625 10.6875 20 C10.80351563 19.29230469 10.91953125 18.58460938 11.0390625 17.85546875 C11.25827848 15.49494176 11.25827848 15.49494176 9.0625 12.8125 Z " fill="#020202" transform="translate(700.9375,215.1875)"/>
<path d="M0 0 C0.66 0 1.32 0 2 0 C2 1.65 2 3.3 2 5 C3.01320313 5.02126953 3.01320313 5.02126953 4.046875 5.04296875 C4.93890625 5.09066406 5.8309375 5.13835937 6.75 5.1875 C7.63171875 5.22230469 8.5134375 5.25710937 9.421875 5.29296875 C13.11668298 6.30624185 14.10990037 7.69232565 16 11 C16.55518362 13.85383223 16.56009369 16.60047933 16.5 19.5 C16.51546875 20.24636719 16.5309375 20.99273437 16.546875 21.76171875 C16.5191378 25.67959884 16.26280379 27.59071541 14.09375 30.96875 C11.97238459 33.02679107 10.99627501 33.94998619 8.0546875 34.09765625 C6.03645833 34.06510417 4.01822917 34.03255208 2 34 C2 34.66 2 35.32 2 36 C1.34 36 0.68 36 0 36 C-2.96741774 32.93265855 -3.37631466 30.69323417 -3.36328125 26.5 C-3.36231445 24.9221875 -3.36231445 24.9221875 -3.36132812 23.3125 C-3.34521484 22.219375 -3.32910156 21.12625 -3.3125 20 C-3.31572266 18.906875 -3.31894531 17.81375 -3.32226562 16.6875 C-3.26362025 7.98665829 -3.26362025 7.98665829 -1 4 C-0.63215869 2.6757713 -0.28797019 1.34386088 0 0 Z M3 11 C3 16.61 3 22.22 3 28 C4.98 28 6.96 28 9 28 C10.75559942 26.24440058 10.13221919 23.96417558 10.13671875 21.62890625 C10.13285156 20.92636719 10.12898438 20.22382813 10.125 19.5 C10.12886719 18.79746094 10.13273437 18.09492188 10.13671875 17.37109375 C10.44390931 13.89571192 10.44390931 13.89571192 9 11 C7.02 11 5.04 11 3 11 Z " fill="#040404" transform="translate(299,210)"/>
<path d="M0 0 C4 6 4 6 3.6875 8.0625 C3 10 3 10 2 12 C1.87554225 14.47178874 1.8148408 16.90311169 1.8125 19.375 C1.80025391 20.04789063 1.78800781 20.72078125 1.77539062 21.4140625 C1.76421564 25.19865611 2.15513467 27.71504992 4 31 C3.67 31.66 3.34 32.32 3 33 C2.34 33 1.68 33 1 33 C1 33.66 1 34.32 1 35 C0.34 35 -0.32 35 -1 35 C-1 34.34 -1 33.68 -1 33 C-1.77085937 33.01160156 -2.54171875 33.02320313 -3.3359375 33.03515625 C-4.84027344 33.04869141 -4.84027344 33.04869141 -6.375 33.0625 C-7.37273437 33.07410156 -8.37046875 33.08570313 -9.3984375 33.09765625 C-12 33 -12 33 -14 32 C-14.0867562 27.70845978 -14.1403089 23.41714332 -14.1875 19.125 C-14.21263672 17.90167969 -14.23777344 16.67835938 -14.26367188 15.41796875 C-14.27333984 14.25136719 -14.28300781 13.08476562 -14.29296875 11.8828125 C-14.3086792 10.80402832 -14.32438965 9.72524414 -14.34057617 8.61376953 C-14.22818604 7.75122559 -14.1157959 6.88868164 -14 6 C-10.68629 3.79086 -9.6553979 3.77518447 -5.8125 3.875 C-4.91144531 3.89304688 -4.01039063 3.91109375 -3.08203125 3.9296875 C-2.39496094 3.95289063 -1.70789063 3.97609375 -1 4 C-0.67 2.68 -0.34 1.36 0 0 Z M-9 10 C-8.67 11.98 -8.34 13.96 -8 16 C-5.69 16 -3.38 16 -1 16 C-1 14.02 -1 12.04 -1 10 C-3.64 10 -6.28 10 -9 10 Z M-9 22 C-9 23.65 -9 25.3 -9 27 C-6.36 27 -3.72 27 -1 27 C-1 25.02 -1 23.04 -1 21 C-3.7283768 21 -6.31654063 21.53331141 -9 22 Z " fill="#030303" transform="translate(437,211)"/>
<path d="M0 0 C3.15369309 2.07682228 3.79628372 3.36168898 4.9375 6.9375 C5.01245915 10.61049821 4.178742 12.09501066 2 15 C1.34 15.66 0.68 16.32 0 17 C0.66 17.886875 1.32 18.77375 2 19.6875 C3.98860067 22.98111986 4.43735074 24.28251873 4 28 C1.8125 28 1.8125 28 -1 27 C-3.34229342 24.11961214 -6 20.81180628 -6 17 C-6.66 17 -7.32 17 -8 17 C-7.98839844 17.62648437 -7.97679687 18.25296875 -7.96484375 18.8984375 C-7.95130859 20.12433594 -7.95130859 20.12433594 -7.9375 21.375 C-7.92589844 22.18710938 -7.91429687 22.99921875 -7.90234375 23.8359375 C-8 26 -8 26 -9 28 C-10.65 27.67 -12.3 27.34 -14 27 C-14 18.42 -14 9.84 -14 1 C-8.92163986 -1.53918007 -5.45085472 -1.24254093 0 0 Z M-8 5 C-8 6.98 -8 8.96 -8 11 C-6.02 11 -4.04 11 -2 11 C-1.67 9.35 -1.34 7.7 -1 6 C-3.31 5.67 -5.62 5.34 -8 5 Z " fill="#030303" transform="translate(412,216)"/>
<path d="M0 0 C2.35546875 0.08984375 2.35546875 0.08984375 5 1 C6.80078125 3.50390625 6.80078125 3.50390625 8.3125 6.5625 C8.82425781 7.57441406 9.33601562 8.58632812 9.86328125 9.62890625 C10.23839844 10.41136719 10.61351562 11.19382813 11 12 C11.33 8.37 11.66 4.74 12 1 C13.65 0.67 15.3 0.34 17 0 C17 8.91 17 17.82 17 27 C15.68 27.33 14.36 27.66 13 28 C12.01993141 26.37554381 11.04097364 24.75041739 10.0625 23.125 C9.51722656 22.22007812 8.97195313 21.31515625 8.41015625 20.3828125 C7.56101983 18.94798364 6.74562276 17.49124552 6 16 C5.67 19.63 5.34 23.26 5 27 C3.68 27.33 2.36 27.66 1 28 C-1 26 -1 26 -1.24291992 23.49389648 C-1.23881104 22.46337158 -1.23470215 21.43284668 -1.23046875 20.37109375 C-1.22853516 19.25412109 -1.22660156 18.13714844 -1.22460938 16.98632812 C-1.21236328 15.81521484 -1.20011719 14.64410156 -1.1875 13.4375 C-1.18685547 12.26251953 -1.18621094 11.08753906 -1.18554688 9.87695312 C-1.14012141 1.14012141 -1.14012141 1.14012141 0 0 Z " fill="#030303" transform="translate(596,216)"/>
<path d="M0 0 C0.66 0 1.32 0 2 0 C2.33 0.66 2.66 1.32 3 2 C3.886875 1.9175 4.77375 1.835 5.6875 1.75 C9.72466718 2.05469186 11.13864711 3.22040005 14 6 C15.68460589 9.36921177 15.31092974 13.1109862 15.375 16.8125 C15.41238281 17.62009766 15.44976563 18.42769531 15.48828125 19.25976562 C15.55157246 23.55301938 15.39843028 25.45029405 12.80859375 29.0234375 C9.82470146 31.12336726 8.2850558 31.66859777 4.6875 31.8125 C3.80449219 31.86019531 2.92148437 31.90789062 2.01171875 31.95703125 C1.34785156 31.97121094 0.68398438 31.98539063 0 32 C-4.48941808 25.16827684 -4.76271207 18.01342937 -4 10 C-2.9592864 6.50520193 -1.61792216 3.26473579 0 0 Z M3 8 C1.87821213 11.3653636 1.83228841 14.0203755 1.8125 17.5625 C1.79832031 18.71878906 1.78414062 19.87507813 1.76953125 21.06640625 C1.69012807 24.12316386 1.69012807 24.12316386 4 26 C5.65 25.67 7.3 25.34 9 25 C9 19.39 9 13.78 9 8 C7.02 8 5.04 8 3 8 Z " fill="#030303" transform="translate(574,213)"/>
<path d="M0 0 C0.66 0 1.32 0 2 0 C2 0.66 2 1.32 2 2 C3.093125 2.103125 4.18625 2.20625 5.3125 2.3125 C9 3 9 3 10.875 4.1875 C12.43432705 6.69974914 12.67683438 9.09150946 13 12 C11.125 13.0625 11.125 13.0625 9 14 C8.34 13.67 7.68 13.34 7 13 C6.375 10.9375 6.375 10.9375 6 9 C4.68 8.67 3.36 8.34 2 8 C2 13.94 2 19.88 2 26 C6.23578792 23.89609059 6.23578792 23.89609059 8 20 C9.32 20 10.64 20 12 20 C12.8125 22.125 12.8125 22.125 13 25 C11.01187954 28.33491174 9.70388496 30.34861541 6.05859375 31.7421875 C2.20079711 32.45957663 0.50497252 32.30083469 -2.9375 30.25 C-6.64297293 26.20766589 -6.24654218 21.83127086 -6.3125 16.625 C-6.35600586 15.49191406 -6.35600586 15.49191406 -6.40039062 14.3359375 C-6.44573603 10.34554185 -6.27297025 8.43787806 -4.10546875 4.9609375 C-2 3 -2 3 0 3 C0 2.01 0 1.02 0 0 Z " fill="#030303" transform="translate(253,213)"/>
<path d="M0 0 C4.63235294 2.26470588 4.63235294 2.26470588 6 5 C6.31569929 8.09665038 6.32411736 11.20172046 6.375 14.3125 C6.41238281 15.16779297 6.44976562 16.02308594 6.48828125 16.90429688 C6.5506077 21.37448817 6.46270563 23.37590391 3.7265625 27.06640625 C0.03247525 29.68613861 0.03247525 29.68613861 -3 29.625 C-3.639375 29.63789063 -4.27875 29.65078125 -4.9375 29.6640625 C-8.40286997 28.54831838 -9.83083584 26.9033428 -12 24 C-12.69623268 20.79069888 -12.65469291 17.70910232 -12.5625 14.4375 C-12.57345703 13.58736328 -12.58441406 12.73722656 -12.59570312 11.86132812 C-12.52312456 5.6921505 -12.52312456 5.6921505 -10.08984375 2.47265625 C-6.53121691 -0.03501164 -4.36826423 -0.34260896 0 0 Z M-6 6 C-6.223293 8.06093408 -6.42802887 10.1238839 -6.625 12.1875 C-6.74101562 13.33605469 -6.85703125 14.48460937 -6.9765625 15.66796875 C-7.00023426 19.03330416 -6.47419799 21.01221706 -5 24 C-2.52733235 23.65555119 -2.52733235 23.65555119 0 23 C2.44433951 18.11132099 1.05609621 11.14846902 0 6 C-1.98 6 -3.96 6 -6 6 Z " fill="#040404" transform="translate(284,215)"/>
<path d="M0 0 C1.051875 -0.00515625 2.10375 -0.0103125 3.1875 -0.015625 C6 0.25 6 0.25 9 2.25 C8.67 3.57 8.34 4.89 8 6.25 C4.37 6.25 0.74 6.25 -3 6.25 C-3 8.23 -3 10.21 -3 12.25 C-0.69 12.25 1.62 12.25 4 12.25 C4.33 13.9 4.66 15.55 5 17.25 C2.29120665 18.60439668 -0.00933268 18.31501451 -3 18.25 C-3 19.9 -3 21.55 -3 23.25 C-2.30132812 23.23839844 -1.60265625 23.22679687 -0.8828125 23.21484375 C0.02726562 23.20582031 0.93734375 23.19679687 1.875 23.1875 C2.77992188 23.17589844 3.68484375 23.16429687 4.6171875 23.15234375 C7 23.25 7 23.25 9 24.25 C8.67 25.9 8.34 27.55 8 29.25 C5.54137599 29.30383848 3.0839245 29.34359038 0.625 29.375 C-0.42300781 29.40013672 -0.42300781 29.40013672 -1.4921875 29.42578125 C-3.32897486 29.44344267 -5.16601963 29.35303261 -7 29.25 C-10.15585919 26.09414081 -9.29482344 22.59108496 -9.32226562 18.28515625 C-9.31904297 17.11855469 -9.31582031 15.95195312 -9.3125 14.75 C-9.32861328 13.58339844 -9.34472656 12.41679687 -9.36132812 11.21484375 C-9.36197266 10.10238281 -9.36261719 8.98992187 -9.36328125 7.84375 C-9.36626221 6.81958984 -9.36924316 5.79542969 -9.37231445 4.74023438 C-9.24945068 3.91845703 -9.12658691 3.09667969 -9 2.25 C-5.53767506 -0.05821663 -4.08201684 -0.02000989 0 0 Z " fill="#030303" transform="translate(330,214.75)"/>
<path d="M0 0 C1.43859375 -0.00386719 1.43859375 -0.00386719 2.90625 -0.0078125 C5.5 0.125 5.5 0.125 8.5 1.125 C8.5 2.775 8.5 4.425 8.5 6.125 C4.54 6.125 0.58 6.125 -3.5 6.125 C-3.5 8.105 -3.5 10.085 -3.5 12.125 C-0.86 12.125 1.78 12.125 4.5 12.125 C4.83 13.445 5.16 14.765 5.5 16.125 C2.0647952 18.41513653 0.514669 18.30342973 -3.5 18.125 C-3.5 19.775 -3.5 21.425 -3.5 23.125 C0.13 23.125 3.76 23.125 7.5 23.125 C7.83 24.775 8.16 26.425 8.5 28.125 C6.51880645 30.10619355 2.76554936 29.31000411 0.0625 29.3125 C-0.97874023 29.33086914 -0.97874023 29.33086914 -2.04101562 29.34960938 C-3.86220901 29.35489842 -5.6828692 29.24669207 -7.5 29.125 C-9.5 27.125 -9.5 27.125 -9.74291992 24.7265625 C-9.73881104 23.74429688 -9.73470215 22.76203125 -9.73046875 21.75 C-9.72853516 20.68265625 -9.72660156 19.6153125 -9.72460938 18.515625 C-9.71236328 17.39671875 -9.70011719 16.2778125 -9.6875 15.125 C-9.68685547 14.00609375 -9.68621094 12.8871875 -9.68554688 11.734375 C-9.64028159 3.40556319 -9.64028159 3.40556319 -8.5 1.125 C-5.41493912 0.09664637 -3.2305728 -0.00868434 0 0 Z " fill="#020202" transform="translate(502.5,214.875)"/>
<path d="M0 0 C2.39527271 2.39527271 2.25593548 2.94626277 2.265625 6.2109375 C2.26949219 7.46003906 2.26949219 7.46003906 2.2734375 8.734375 C2.26570313 9.60578125 2.25796875 10.4771875 2.25 11.375 C2.25773437 12.23867187 2.26546875 13.10234375 2.2734375 13.9921875 C2.27085937 14.8275 2.26828125 15.6628125 2.265625 16.5234375 C2.26336914 17.28575684 2.26111328 18.04807617 2.25878906 18.83349609 C1.9656642 21.28744899 1.27191618 22.89177891 0 25 C-3.01681414 27.32062626 -6.28999505 27.41803185 -10.03125 27.3203125 C-13.21631491 26.8021075 -14.86209418 25.3322609 -17 23 C-19.22947499 16.66658697 -18.86807482 8.56082072 -16.75 2.3125 C-12.37315116 -3.47119311 -6.16530488 -3.08265244 0 0 Z M-12 5 C-12.12653198 7.49238569 -12.18519825 9.94470441 -12.1875 12.4375 C-12.19974609 13.13166016 -12.21199219 13.82582031 -12.22460938 14.54101562 C-12.22989842 16.36220901 -12.12169207 18.1828692 -12 20 C-11.34 20.66 -10.68 21.32 -10 22 C-7.39719432 21.67958603 -7.39719432 21.67958603 -5 21 C-4.67 19.35 -4.34 17.7 -4 16 C-2.68 15.67 -1.36 15.34 0 15 C-0.50833198 11.23834336 -1.1594993 9.49964062 -4 7 C-4.66 6.01 -5.32 5.02 -6 4 C-9.28912144 3.5085887 -9.28912144 3.5085887 -12 5 Z " fill="#020202" transform="translate(391,217)"/>
<path d="M0 0 C2 0.3125 2 0.3125 4 1 C5.67387623 4.34775246 5.22672443 8.07246047 5.25 11.75 C5.270625 12.54921875 5.29125 13.3484375 5.3125 14.171875 C5.3455384 19.19371226 4.83822556 22.67634797 2 27 C-1.66781672 29.44521115 -4.73453233 29.72237759 -9 29 C-11.43119623 27.12984906 -12.64069173 25.71861655 -14 23 C-14.08400529 21.40552536 -14.10727467 19.80759455 -14.09765625 18.2109375 C-14.09443359 17.26992187 -14.09121094 16.32890625 -14.08789062 15.359375 C-14.07951172 14.37453125 -14.07113281 13.3896875 -14.0625 12.375 C-14.05798828 11.38242188 -14.05347656 10.38984375 -14.04882812 9.3671875 C-14.03702145 6.9113984 -14.020554 4.45572896 -14 2 C-12.34385343 1.61781233 -10.67542976 1.28604898 -9 1 C-8 2 -8 2 -7.88647461 4.04125977 C-7.89171143 4.91580811 -7.89694824 5.79035645 -7.90234375 6.69140625 C-7.90556641 7.63564453 -7.90878906 8.57988281 -7.91210938 9.55273438 C-7.92048828 10.54595703 -7.92886719 11.53917969 -7.9375 12.5625 C-7.94201172 13.55958984 -7.94652344 14.55667969 -7.95117188 15.58398438 C-7.96299993 18.05604849 -7.97948151 20.52799518 -8 23 C-6.33388095 23.042721 -4.66617115 23.04063832 -3 23 C-1.3863608 21.3863608 -1.79655898 19.57372229 -1.71875 17.34375 C-1.68136719 16.40402344 -1.64398437 15.46429688 -1.60546875 14.49609375 C-1.57066406 13.50738281 -1.53585937 12.51867187 -1.5 11.5 C-1.43142372 9.5519257 -1.35873213 7.60399041 -1.28125 5.65625 C-1.23581055 4.35397461 -1.23581055 4.35397461 -1.18945312 3.02539062 C-1 1 -1 1 0 0 Z " fill="#030303" transform="translate(658,215)"/>
<path d="M0 0 C1.051875 -0.00515625 2.10375 -0.0103125 3.1875 -0.015625 C6 0.25 6 0.25 9 2.25 C8.67 3.57 8.34 4.89 8 6.25 C4.04 6.25 0.08 6.25 -4 6.25 C-4 8.23 -4 10.21 -4 12.25 C-1.36 12.25 1.28 12.25 4 12.25 C4.33 13.57 4.66 14.89 5 16.25 C1.5647952 18.54013653 0.014669 18.42842973 -4 18.25 C-4 19.9 -4 21.55 -4 23.25 C-0.37 23.25 3.26 23.25 7 23.25 C7.66 24.57 8.32 25.89 9 27.25 C7 29.25 7 29.25 3.55859375 29.48046875 C2.18482696 29.47647911 0.81105886 29.46173177 -0.5625 29.4375 C-1.26052734 29.43685547 -1.95855469 29.43621094 -2.67773438 29.43554688 C-7.85968842 29.39031158 -7.85968842 29.39031158 -9 28.25 C-9.28106485 23.94417174 -9.23180744 19.62641053 -9.25 15.3125 C-9.270625 14.09369141 -9.29125 12.87488281 -9.3125 11.61914062 C-9.31765625 10.45705078 -9.3228125 9.29496094 -9.328125 8.09765625 C-9.3374707 7.02523682 -9.34681641 5.95281738 -9.35644531 4.84790039 C-9.23881836 3.99059326 -9.12119141 3.13328613 -9 2.25 C-5.53767506 -0.05821663 -4.08201684 -0.02000989 0 0 Z " fill="#030303" transform="translate(678,214.75)"/>
<path d="M0 0 C2.88438838 1.31108563 4.5404593 2.35246537 6.375 4.9375 C7.10948624 7.3613046 6.84172676 8.64316506 6 11 C4.68 11.33 3.36 11.66 2 12 C1.34 10.02 0.68 8.04 0 6 C-1.65 6.33 -3.3 6.66 -5 7 C-5.33 12.28 -5.66 17.56 -6 23 C-4.02 22.67 -2.04 22.34 0 22 C1.43637698 20.04836882 1.43637698 20.04836882 2 18 C3.32 18 4.64 18 6 18 C6.6875 19.6875 6.6875 19.6875 7 22 C5.35923508 25.44560634 4.21487558 26.85674962 1 29 C-5.9053579 29.77963718 -5.9053579 29.77963718 -9.71484375 27.06640625 C-12.86270158 22.8423577 -12.77796667 19.63693365 -12.6875 14.5 C-12.71521484 13.65824219 -12.74292969 12.81648437 -12.77148438 11.94921875 C-12.74802259 5.98992471 -12.74802259 5.98992471 -10.72338867 3.31054688 C-7.17697197 0.21877079 -4.63664432 -0.78921605 0 0 Z " fill="#030303" transform="translate(558,215)"/>
<path d="M0 0 C2.00488281 0.07910156 2.00488281 0.07910156 4 1 C5.09667969 3.05371094 5.09667969 3.05371094 5.921875 5.734375 C6.22480469 6.70117188 6.52773438 7.66796875 6.83984375 8.6640625 C7.14019531 9.68242187 7.44054687 10.70078125 7.75 11.75 C8.06582031 12.75289062 8.38164062 13.75578125 8.70703125 14.7890625 C10.10194931 19.34217166 11.1920235 23.20372753 11 28 C9.125 28.625 9.125 28.625 7 29 C6.34 28.34 5.68 27.68 5 27 C5 25.68 5 24.36 5 23 C2.69 23.33 0.38 23.66 -2 24 C-2.99 26.475 -2.99 26.475 -4 29 C-5.65 28.67 -7.3 28.34 -9 28 C-8.35793837 22.14217842 -6.85842349 16.79060901 -5.0625 11.1875 C-4.79759766 10.32962891 -4.53269531 9.47175781 -4.25976562 8.58789062 C-4.00001953 7.76869141 -3.74027344 6.94949219 -3.47265625 6.10546875 C-3.12086304 4.99401489 -3.12086304 4.99401489 -2.76196289 3.86010742 C-2 2 -2 2 0 0 Z M1 13 C0.67 14.65 0.34 16.3 0 18 C0.66 17.67 1.32 17.34 2 17 C1.67 15.68 1.34 14.36 1 13 Z " fill="#030303" transform="translate(456,215)"/>
<path d="M0 0 C2.0625 1.6875 2.0625 1.6875 4 4 C3.75 6.75 3.75 6.75 3 9 C2.34 9 1.68 9 1 9 C1 17.91 1 26.82 1 36 C0.34 35.67 -0.32 35.34 -1 35 C-1.625 32.9375 -1.625 32.9375 -2 31 C-3.65 31.33 -5.3 31.66 -7 32 C-8.2263757 29.54724859 -8.11415314 27.9494219 -8.09765625 25.2109375 C-8.09282227 23.79941406 -8.09282227 23.79941406 -8.08789062 22.359375 C-8.07951172 21.37453125 -8.07113281 20.3896875 -8.0625 19.375 C-8.05798828 18.38242188 -8.05347656 17.38984375 -8.04882812 16.3671875 C-8.03702145 13.9113984 -8.020554 11.45572896 -8 9 C-9.65 9 -11.3 9 -13 9 C-13.33 7.68 -13.66 6.36 -14 5 C-10.27722734 2.51815156 -8.36204333 2.93293304 -4.05859375 3.22265625 C-3.03958984 3.11244141 -3.03958984 3.11244141 -2 3 C-1.34 2.01 -0.68 1.02 0 0 Z " fill="#020202" transform="translate(483,212)"/>
<path d="M0 0 C0 3.46945597 -0.68811199 4.42232166 -2.5546875 7.2734375 C-3.08707031 8.0984375 -3.61945313 8.9234375 -4.16796875 9.7734375 C-4.73128906 10.63195312 -5.29460937 11.49046875 -5.875 12.375 C-6.98044071 14.06778624 -8.08213005 15.76302936 -9.1796875 17.4609375 C-9.67194824 18.21165527 -10.16420898 18.96237305 -10.67138672 19.73583984 C-12.07982342 22.0006792 -12.07982342 22.0006792 -13.03564453 24.64306641 C-14.34635598 27.84651155 -16.553221 29.553221 -19 32 C-21.10350205 34.93500404 -23.06678135 37.95069635 -25 41 C-25.33 39.68 -25.66 38.36 -26 37 C-24.515 36.505 -24.515 36.505 -23 36 C-22.38932856 34.14255793 -22.38932856 34.14255793 -22 32 C-20.36363636 28.18181818 -20.36363636 28.18181818 -18 27 C-16.95191959 25.02477154 -15.9479589 23.02518491 -15 21 C-14.34 21 -13.68 21 -13 21 C-13 19.68 -13 18.36 -13 17 C-12.34 17 -11.68 17 -11 17 C-11 16.01 -11 15.02 -11 14 C-10.34 14 -9.68 14 -9 14 C-8.87625 13.195625 -8.7525 12.39125 -8.625 11.5625 C-8.315625 10.2940625 -8.315625 10.2940625 -8 9 C-7.34 8.67 -6.68 8.34 -6 8 C-5.525625 7.030625 -5.05125 6.06125 -4.5625 5.0625 C-3 2 -3 2 0 0 Z " fill="#051B4D" transform="translate(130,183)"/>
<path d="M0 0 C0.99 0.99 1.98 1.98 3 3 C-1.18174062 11.04668271 -5.86476859 18.53175737 -11 26 C-13.65614176 25.63030147 -14.74758254 25.29524408 -16.51953125 23.22265625 C-16.94621094 22.50980469 -17.37289062 21.79695313 -17.8125 21.0625 C-18.25207031 20.35222656 -18.69164062 19.64195312 -19.14453125 18.91015625 C-19.42683594 18.27980469 -19.70914063 17.64945313 -20 17 C-19.67 16.34 -19.34 15.68 -19 15 C-17.19899901 16.63727363 -16.04499125 17.9043936 -15 20.125 C-14.08797022 22.3530435 -14.08797022 22.3530435 -11 23 C-11 21.02 -11 19.04 -11 17 C-9.68 17 -8.36 17 -7 17 C-7 16.01 -7 15.02 -7 14 C-6.34 13.67 -5.68 13.34 -5 13 C-4.65657551 11.66923011 -4.32380126 10.33568021 -4 9 C-3.34 8.34 -2.68 7.68 -2 7 C-1.40929986 5.05396726 -1.40929986 5.05396726 -1 3 C-0.67 2.01 -0.34 1.02 0 0 Z " fill="#0E4FB9" transform="translate(66,215)"/>
<path d="M0 0 C2 2 2 2 2.125 4.625 C2.08375 5.40875 2.0425 6.1925 2 7 C2.99 6.34 3.98 5.68 5 5 C5.33 6.32 5.66 7.64 6 9 C5.38125 9.391875 4.7625 9.78375 4.125 10.1875 C1.66337724 12.28711941 1.10133285 14.01066797 0 17 C-0.66 17.33 -1.32 17.66 -2 18 C-2.33 18.99 -2.66 19.98 -3 21 C-1.68 21.33 -0.36 21.66 1 22 C1 22.99 1 23.98 1 25 C-1.64 24.34 -4.28 23.68 -7 23 C-5.92692821 19.95962992 -4.80758635 17.73967565 -2.875 15.125 C-0.63387368 11.38978947 -0.76619953 9.28634201 -1 5 C-0.71479595 3.32442621 -0.40044304 1.65182755 0 0 Z " fill="#072258" transform="translate(70,218)"/>
<path d="M0 0 C0.44988281 0.64453125 0.89976562 1.2890625 1.36328125 1.953125 C3.20860296 4.26087817 4.13873816 4.60534319 7 5 C6.59834879 10.623117 4.76579946 13.04591056 1 17 C0.67 17 0.34 17 0 17 C-1.40333568 11.23073111 -0.67296616 5.81856895 0 0 Z " fill="#020202" transform="translate(345,234)"/>
<path d="M0 0 C0 3.7358326 -0.70691635 6.49020153 -2 10 C-3.62935241 11.37868281 -5.29749607 12.71274093 -7 14 C-8.06775224 15.96466413 -9.06553465 17.96855359 -10 20 C-13.52755906 25.84251969 -13.52755906 25.84251969 -17 27 C-15.49838591 22.61824086 -13.12705494 19.09703811 -10.4375 15.375 C-7.22115276 10.9656225 -7.22115276 10.9656225 -5 6 C-4.34 6 -3.68 6 -3 6 C-2.87625 5.195625 -2.7525 4.39125 -2.625 3.5625 C-2.41875 2.716875 -2.2125 1.87125 -2 1 C-1.34 0.67 -0.68 0.34 0 0 Z " fill="#061D4D" transform="translate(118,156)"/>
<path d="M0 0 C1.65 0 3.3 0 5 0 C3.125 4.75 3.125 4.75 2 7 C1.77377919 8.70363822 1.59111527 10.41328701 1.4375 12.125 C1.35371094 13.03507813 1.26992187 13.94515625 1.18359375 14.8828125 C1.12300781 15.58148438 1.06242188 16.28015625 1 17 C0.34 17 -0.32 17 -1 17 C-1.33 15.35 -1.66 13.7 -2 12 C-3.32 13.98 -4.64 15.96 -6 18 C-6.66 16.68 -7.32 15.36 -8 14 C-4.25 10.125 -4.25 10.125 -2 9 C-0.37265234 5.65489648 0 3.81164166 0 0 Z " fill="#072254" transform="translate(162,128)"/>
<path d="M0 0 C-1.1858237 3.37503669 -2.27573689 5.64722731 -5 8 C-4.34 6.02 -3.68 4.04 -3 2 C-11.58 2 -20.16 2 -29 2 C-29.66 3.32 -30.32 4.64 -31 6 C-31.66 6 -32.32 6 -33 6 C-33.268125 6.78375 -33.53625 7.5675 -33.8125 8.375 C-35 11 -35 11 -38 13 C-36.44070026 8.01024085 -33.8484669 3.54701523 -30 0 C-26.73527255 -1.1234482 -23.67972214 -1.12427084 -20.25 -1.0625 C-19.36344727 -1.07595459 -18.47689453 -1.08940918 -17.56347656 -1.10327148 C-11.65686662 -1.15157067 -5.84571202 -0.8768568 0 0 Z " fill="#071E4A" transform="translate(172,120)"/>
<path d="M0 0 C2 2 2 2 2.23046875 5.0546875 C2.21628906 6.31539062 2.20210937 7.57609375 2.1875 8.875 C2.18105469 9.53959229 2.17460938 10.20418457 2.16796875 10.88891602 C2.07532353 16.95066386 1.62874938 22.97074258 1 29 C0.67 29 0.34 29 0 29 C-0.1698931 26.18766245 -0.33598232 23.37518151 -0.5 20.5625 C-0.54769531 19.77939453 -0.59539063 18.99628906 -0.64453125 18.18945312 C-1.51761416 3.03522832 -1.51761416 3.03522832 0 0 Z " fill="#020202" transform="translate(666,213)"/>
<path d="M0 0 C0.33 0.99 0.66 1.98 1 3 C0.01 3.33 -0.98 3.66 -2 4 C-2.268125 4.845625 -2.53625 5.69125 -2.8125 6.5625 C-4.37386692 11.08224634 -7.02142775 14.30956772 -10 18 C-12 15 -12 15 -11.8125 13 C-10.87550323 10.69354642 -9.97053324 9.5157948 -8 8 C-7.01 8 -6.02 8 -5 8 C-4.9175 7.4225 -4.835 6.845 -4.75 6.25 C-3.79468987 3.3840696 -2.21530827 2.0009236 0 0 Z " fill="#0F4FB8" transform="translate(208,200)"/>
<path d="M0 0 C1.32 0 2.64 0 4 0 C4.6875 1.625 4.6875 1.625 5 4 C3.5625 7.25 3.5625 7.25 2 10 C0.35 9.67 -1.3 9.34 -3 9 C-2.5020163 5.26512223 -2.12508244 3.18762365 0 0 Z " fill="#020202" transform="translate(520,238)"/>
<path d="M0 0 C0.66 0 1.32 0 2 0 C0.68501371 3.52541563 -0.84627321 6.64327136 -2.875 9.8125 C-3.36742188 10.60269531 -3.85984375 11.39289063 -4.3671875 12.20703125 C-4.90601562 12.79871094 -5.44484375 13.39039063 -6 14 C-7.32 14 -8.64 14 -10 14 C-9.5049505 9.42079208 -9.5049505 9.42079208 -7.125 7.4375 C-6.42375 6.963125 -5.7225 6.48875 -5 6 C-4.46375 5.278125 -3.9275 4.55625 -3.375 3.8125 C-2.694375 2.9153125 -2.694375 2.9153125 -2 2 C-1.34 2 -0.68 2 0 2 C0 1.34 0 0.68 0 0 Z " fill="#041E50" transform="translate(100,227)"/>
<path d="M0 0 C0.66 0 1.32 0 2 0 C2 4.29 2 8.58 2 13 C0.02 13.99 0.02 13.99 -2 15 C-3.56033623 13.43966377 -3.20707559 11.91052864 -3.25 9.75 C-3.21146811 5.72341703 -2.66240355 3.17440423 0 0 Z " fill="#0A0A0A" transform="translate(288,221)"/>
<path d="M0 0 C0.33 0.66 0.66 1.32 1 2 C-0.4375 4.625 -0.4375 4.625 -2 7 C-1.34 7.33 -0.68 7.66 0 8 C-0.66 8.66 -1.32 9.32 -2 10 C-2.99 10 -3.98 10 -5 10 C-5 10.66 -5 11.32 -5 12 C-4.34 12.33 -3.68 12.66 -3 13 C-8.75 18 -8.75 18 -11 18 C-9.48103632 13.56829827 -7.07360191 9.96975924 -4.375 6.1875 C-3.95476562 5.59001953 -3.53453125 4.99253906 -3.1015625 4.37695312 C-2.07220272 2.91479435 -1.0367177 1.45695101 0 0 Z " fill="#0A50C0" transform="translate(182,194)"/>
<path d="M0 0 C3 3.625 3 3.625 3 7 C4.32 7.66 5.64 8.32 7 9 C3.90521121 10.03159626 2.47368607 9.97482862 -0.6875 9.5625 C-1.49574219 9.46066406 -2.30398437 9.35882813 -3.13671875 9.25390625 C-3.75160156 9.17011719 -4.36648437 9.08632812 -5 9 C-3.7508258 5.54074837 -2.32472205 2.85306797 0 0 Z " fill="#0654D3" transform="translate(157,232)"/>
<path d="M0 0 C3 1 3 1 4 3 C4.66 2.67 5.32 2.34 6 2 C5.51575663 6.35819034 4.25729814 8.12591341 1 11 C0.4225 11.5775 -0.155 12.155 -0.75 12.75 C-1.36875 13.36875 -1.36875 13.36875 -2 14 C-1.62875 12.7625 -1.2575 11.525 -0.875 10.25 C-0.01015573 6.86737382 -0.01015573 6.86737382 -0.875 3.5 C-1.24625 3.005 -1.6175 2.51 -2 2 C-1.34 2 -0.68 2 0 2 C0 1.34 0 0.68 0 0 Z " fill="#0750C1" transform="translate(66,136)"/>
<path d="M0 0 C9.9 0 19.8 0 30 0 C29.04065919 3.83736322 28.76390737 4.59660228 26 7 C26.33 5.02 26.66 3.04 27 1 C18.09 1 9.18 1 0 1 C0 0.67 0 0.34 0 0 Z " fill="#124EAC" transform="translate(53,120)"/>
<path d="M0 0 C1.32667306 2.65334611 1.49020734 4.05875595 1 7 C-2 9.3125 -2 9.3125 -5 11 C-4.67 13.31 -4.34 15.62 -4 18 C-5.32 16.68 -6.64 15.36 -8 14 C-6.6744419 10.37723685 -5.05653045 7.36494652 -2.875 4.1875 C-2.33617187 3.39730469 -1.79734375 2.60710937 -1.2421875 1.79296875 C-0.83226562 1.20128906 -0.42234375 0.60960937 0 0 Z " fill="#1151B9" transform="translate(21,168)"/>
<path d="M0 0 C0.66 0 1.32 0 2 0 C1.34 1.65 0.68 3.3 0 5 C-0.66 5 -1.32 5 -2 5 C-2.07476563 5.61488281 -2.14953125 6.22976562 -2.2265625 6.86328125 C-2.63512769 9.37475548 -3.08892513 11.62108228 -4 14 C-7.125 16.0625 -7.125 16.0625 -10 17 C-8.51390706 12.82810366 -6.44697825 9.37146174 -4 5.6875 C-3.29875 4.61886719 -2.5975 3.55023438 -1.875 2.44921875 C-1.25625 1.64097656 -0.6375 0.83273438 0 0 Z " fill="#0C4BBE" transform="translate(32,151)"/>
<path d="M0 0 C0.33 0.66 0.66 1.32 1 2 C0.67 2.66 0.34 3.32 0 4 C0.66 4 1.32 4 2 4 C1.67 5.32 1.34 6.64 1 8 C-0.65 8 -2.3 8 -4 8 C-4.0825 8.598125 -4.165 9.19625 -4.25 9.8125 C-5.20455872 12.5966296 -6.57132271 13.43311142 -9 15 C-7.61219205 11.10993227 -5.7847773 8.03441292 -3.375 4.6875 C-2.74335938 3.80449219 -2.11171875 2.92148438 -1.4609375 2.01171875 C-0.97882813 1.34785156 -0.49671875 0.68398437 0 0 Z " fill="#052253" transform="translate(133,133)"/>
<path d="M0 0 C0.66796875 1.7890625 0.66796875 1.7890625 1 4 C-0.07421875 5.7109375 -0.07421875 5.7109375 -1.6875 7.375 C-3.7729784 9.6201554 -5.61171166 11.78363897 -7.25 14.375 C-9 17 -9 17 -11 18 C-10.33333333 16.33333333 -9.66666667 14.66666667 -9 13 C-8.5978125 11.7625 -8.5978125 11.7625 -8.1875 10.5 C-6.67628017 7.31848457 -4.53941243 5.41244181 -2 3 C-1.34 2.01 -0.68 1.02 0 0 Z " fill="#061D4A" transform="translate(89,200)"/>
<path d="M0 0 C0.66 0 1.32 0 2 0 C2 0.66 2 1.32 2 2 C2.66 2 3.32 2 4 2 C4 2.66 4 3.32 4 4 C4.66 4 5.32 4 6 4 C5.67 3.01 5.34 2.02 5 1 C5.66 1 6.32 1 7 1 C7.66 1.99 8.32 2.98 9 4 C8.67 4.99 8.34 5.98 8 7 C8 7.99 8 8.98 8 10 C7.67 10.66 7.34 11.32 7 12 C6.0165504 10.56542672 5.03839079 9.12722594 4.0625 7.6875 C3.51722656 6.88699219 2.97195312 6.08648437 2.41015625 5.26171875 C1 3 1 3 0 0 Z " fill="#0A50C1" transform="translate(173,153)"/>
<path d="M0 0 C0.33 0.66 0.66 1.32 1 2 C0.0625 4.625 0.0625 4.625 -1 7 C0.32 7.33 1.64 7.66 3 8 C3 8.99 3 9.98 3 11 C0.36 10.34 -2.28 9.68 -5 9 C-3.7508258 5.54074837 -2.32472205 2.85306797 0 0 Z " fill="#071B4D" transform="translate(68,232)"/>
<path d="M0 0 C3.25524265 3.02272532 5.61820737 6.25718301 8 10 C7.67 10.66 7.34 11.32 7 12 C4.5 10.75 4.5 10.75 2 9 C2 7.68 2 6.36 2 5 C1.34 5 0.68 5 0 5 C0 3.35 0 1.7 0 0 Z " fill="#0D4DB8" transform="translate(211,165)"/>
<path d="M0 0 C1 2 1 2 0.25 4.5625 C-1 7 -1 7 -4 8 C-4 9.32 -4 10.64 -4 12 C-5.98 12.99 -5.98 12.99 -8 14 C-6.6744419 10.37723685 -5.05653045 7.36494652 -2.875 4.1875 C-2.33617187 3.39730469 -1.79734375 2.60710937 -1.2421875 1.79296875 C-0.83226562 1.20128906 -0.42234375 0.60960938 0 0 Z " fill="#1050B3" transform="translate(177,126)"/>
<path d="M0 0 C3.84762566 3.4201117 6.60634022 7.46774256 9 12 C9 12.66 9 13.32 9 14 C8.34 14 7.68 14 7 14 C7 13.01 7 12.02 7 11 C6.38125 10.95875 5.7625 10.9175 5.125 10.875 C3 10 3 10 1.8125 7.1875 C1.544375 6.135625 1.27625 5.08375 1 4 C0.79375 3.21625 0.5875 2.4325 0.375 1.625 C0.25125 1.08875 0.1275 0.5525 0 0 Z " fill="#0B4EB3" transform="translate(194,139)"/>
<path d="M0 0 C0.99 0.99 1.98 1.98 3 3 C1.35 5.97 -0.3 8.94 -2 12 C-3.55945072 8.88109857 -2.64552918 6.34501482 -2 3 C-1.34 2.01 -0.68 1.02 0 0 Z " fill="#0D46AF" transform="translate(66,215)"/>
<path d="M0 0 C0.66 0.33 1.32 0.66 2 1 C1.50168276 4.68754757 0.89932357 6.60490662 -2 9 C-2.6875 6.1875 -2.6875 6.1875 -3 3 C-1.5625 1.125 -1.5625 1.125 0 0 Z " fill="#0A53C5" transform="translate(199,209)"/>
<path d="M0 0 C1 3 1 3 0 6 C-0.99 6 -1.98 6 -3 6 C-3 6.99 -3 7.98 -3 9 C-3.66 9 -4.32 9 -5 9 C-5 9.99 -5 10.98 -5 12 C-5.66 12 -6.32 12 -7 12 C-5.44298069 7.32894208 -2.91552627 3.91294315 0 0 Z " fill="#0D51C0" transform="translate(190,182)"/>
<path d="M0 0 C0.99 0 1.98 0 3 0 C1.68775452 3.93673644 0.08089673 6.22719294 -3 9 C-3 6.37886292 -2.68707555 4.49064888 -2 2 C-1.34 2 -0.68 2 0 2 C0 1.34 0 0.68 0 0 Z " fill="#0954B8" transform="translate(61,150)"/>
<path d="M0 0 C1.65 1.65 3.3 3.3 5 5 C4.67 5.66 4.34 6.32 4 7 C3.67 6.01 3.34 5.02 3 4 C1.02 4.66 -0.96 5.32 -3 6 C-1.125 1.125 -1.125 1.125 0 0 Z " fill="#134AB3" transform="translate(181,120)"/>
<path d="M0 0 C0.33 1.32 0.66 2.64 1 4 C0.01 4.495 0.01 4.495 -1 5 C-1.65213292 7.02463255 -1.65213292 7.02463255 -2 9 C-2.99 9 -3.98 9 -5 9 C-3.7508258 5.54074837 -2.32472205 2.85306797 0 0 Z " fill="#0F50B1" transform="translate(157,232)"/>
<path d="M0 0 C0.66 0.33 1.32 0.66 2 1 C1.62875 1.556875 1.2575 2.11375 0.875 2.6875 C-0.29515863 5.05716353 -0.29515863 5.05716353 0.875 7.75 C1.431875 8.86375 1.431875 8.86375 2 10 C0.68 9.34 -0.64 8.68 -2 8 C-2 6.02 -2 4.04 -2 2 C-1.34 2 -0.68 2 0 2 C0 1.34 0 0.68 0 0 Z " fill="#0E4BB5" transform="translate(45,176)"/>
<path d="M0 0 C2 0 2 0 4.625 2.5 C5.40875 3.325 6.1925 4.15 7 5 C6.34 6.32 5.68 7.64 5 9 C3.35 6.03 1.7 3.06 0 0 Z " fill="#0E50B6" transform="translate(182,167)"/>
<path d="M0 0 C0.66 1.32 1.32 2.64 2 4 C0.69593116 6.01920337 -0.63823419 8.01924973 -2 10 C-2.33 10 -2.66 10 -3 10 C-3 8.02 -3 6.04 -3 4 C-2.01 4 -1.02 4 0 4 C0 2.68 0 1.36 0 0 Z " fill="#0E51B3" transform="translate(75,128)"/>
<path d="M0 0 C1 2 1 2 0.3125 4.5 C-1.15567038 7.29651501 -2.09303901 7.93411431 -5 9 C-3.7508258 5.54074837 -2.32472205 2.85306797 0 0 Z " fill="#1554B3" transform="translate(44,133)"/>
<path d="M0 0 C0.99 0.99 1.98 1.98 3 3 C1.25 7.875 1.25 7.875 -1 9 C-0.67 6.03 -0.34 3.06 0 0 Z " fill="#0F47B4" transform="translate(219,177)"/>
<path d="M0 0 C0.66 0.33 1.32 0.66 2 1 C-0.625 5.875 -0.625 5.875 -4 7 C-2.92598892 4.08482708 -2.22189824 2.22189824 0 0 Z " fill="#021B58" transform="translate(105,176)"/>
<path d="M0 0 C0.66 0.33 1.32 0.66 2 1 C0.87548273 3.9719385 -0.22293791 6.33440687 -2 9 C-2.66 8.67 -3.32 8.34 -4 8 C-2.68 5.36 -1.36 2.72 0 0 Z " fill="#041B4B" transform="translate(138,168)"/>
<path d="M0 0 C1 2 1 2 0.25 4.5625 C-1 7 -1 7 -4 8 C-2.87548273 5.0280615 -1.77706209 2.66559313 0 0 Z " fill="#174FB7" transform="translate(38,142)"/>
<path d="M0 0 C0.66 1.32 1.32 2.64 2 4 C1.34 4.66 0.68 5.32 0 6 C0 4.02 0 2.04 0 0 Z " fill="#000000" transform="translate(528,236)"/>
</svg>
